<?xml version="1.0" encoding="utf-8"?>
<!-- Generator: Adobe Illustrator 23.0.6, SVG Export Plug-In . SVG Version: 6.00 Build 0)  -->
<svg version="1.1" id="Layer_1" xmlns="http://www.w3.org/2000/svg" xmlns:xlink="http://www.w3.org/1999/xlink" x="0px" y="0px"
	 viewBox="0 0 132.66 132.59" style="enable-background:new 0 0 132.66 132.59;" xml:space="preserve">
<style type="text/css">
	.st0{fill:#333333;}
</style>
<path d="M66.26,0C29.56,0.12-0.18,29.97,0,66.49c0.18,36.5,30.06,66.22,66.45,66.1c36.67-0.13,66.48-30.09,66.21-66.54
	C132.38,29.33,102.76-0.12,66.26,0z M66.32,127.84C32.24,127.8,4.67,100.23,4.71,66.22C4.75,32.18,32.34,4.66,66.4,4.68
	c34.07,0.02,61.61,27.59,61.58,61.63C127.95,100.38,100.39,127.88,66.32,127.84z"/>
<path class="st0" d="M40.61,78.62c2.25,0,4.5,0.07,6.75-0.03c1.32-0.06,1.67,0.41,1.72,1.69c0.12,3.02,0.68,5.97,2.26,8.61
	c3.45,5.73,9.03,6.94,15.11,6.92c6.01-0.02,11.47-1.34,14.82-7c1.47-2.48,2.12-5.27,2.16-8.13c0.02-1.58,0.44-2.16,2.12-2.11
	c4.41,0.12,8.83,0.12,13.25,0c1.67-0.04,2.2,0.46,2.07,2.1c-1.14,14.47-9,29.73-28.02,32.01c-8.93,1.07-17.69,0.51-25.68-4.15
	c-8.53-4.97-12.53-13.05-14.73-22.26c-0.43-1.78-0.67-3.58-0.74-5.43c-0.06-1.68,0.34-2.4,2.17-2.26
	C36.1,78.75,38.36,78.62,40.61,78.62z"/>
<path class="st0" d="M100.83,36.25c-0.06-4.44-2.69-8.1-6.15-9.06c-5.98-1.66-10.98,2.42-11.16,9.21c-0.1,3.82-0.02,7.65-0.02,11.48
	c0,3.91,0.05,7.82-0.03,11.73c-0.02,1.28,0.32,1.75,1.66,1.73c4.66-0.07,9.32-0.06,13.97-0.01c1.2,0.01,1.79-0.21,1.78-1.62
	C100.83,51.89,100.94,44.07,100.83,36.25z M89.41,36.84c-1.26-0.12-2.08-0.78-2.05-2.19c0.03-1.39,0.83-2.16,2.18-2.14
	c1.34,0.02,2.18,0.84,2.15,2.19C91.65,36.01,90.89,36.81,89.41,36.84z"/>
<path class="st0" d="M48.94,35.99c-0.05-4.28-2.67-7.86-6.12-8.8c-5.91-1.61-10.84,2.38-11.05,9.06c-0.12,3.74-0.02,7.5-0.02,11.24
	c0,4,0.05,8-0.03,11.99c-0.03,1.37,0.32,1.89,1.78,1.86c4.58-0.09,9.16-0.07,13.74-0.01c1.21,0.01,1.77-0.19,1.75-1.6
	C48.94,51.81,49.04,43.9,48.94,35.99z M37.76,36.86c-1.33-0.09-2.21-0.74-2.25-2.12c-0.04-1.37,0.79-2.21,2.1-2.24
	c1.3-0.04,2.21,0.72,2.25,2.1C39.89,35.96,39.1,36.7,37.76,36.86z"/>
</svg>
