<?xml version="1.0" encoding="utf-8"?>
<!-- Generator: Adobe Illustrator 23.0.6, SVG Export Plug-In . SVG Version: 6.00 Build 0)  -->
<svg version="1.1" id="Layer_1" xmlns="http://www.w3.org/2000/svg" xmlns:xlink="http://www.w3.org/1999/xlink" x="0px" y="0px"
	 viewBox="0 0 350.12 89.95" style="enable-background:new 0 0 350.12 89.95;" xml:space="preserve">
<path fill="white" d="M149.08,51.82c0,5.66-0.05,11.33,0.03,16.99c0.02,1.43-0.39,1.89-1.8,1.78c-1.57-0.12-3.16-0.01-4.75-0.03
	c-4.75-0.06-7.28-2.46-7.33-7.21c-0.08-8.33-0.02-16.66-0.04-24.99c0-1.33-0.06-2.67-0.23-3.98c-0.52-4.21-3.86-7.08-8.45-7.33
	c-5.07-0.27-9.07,2.24-9.97,6.44c-0.31,1.45-0.29,2.98-0.29,4.47c-0.02,10.08-0.08,20.16,0.04,30.24c0.02,2.05-0.61,2.5-2.5,2.41
	c-3.16-0.15-6.33-0.14-9.49,0c-1.69,0.08-2.03-0.49-2.02-2.07c0.07-10.58,0.1-21.16,0.01-31.74c-0.06-7.79-7.13-12.12-14.07-8.75
	c-2.49,1.21-4.08,3.12-4.45,5.9c-0.17,1.32-0.29,2.65-0.29,3.98c-0.02,10.16-0.06,20.33,0.03,30.49c0.01,1.73-0.38,2.27-2.16,2.19
	c-3.49-0.15-7-0.04-10.49-0.05c-0.73,0-1.5,0.19-1.48-1.03C69.58,57.8,69,46.05,69.7,34.32c0.54-9.03,5.58-14.5,14.01-16.99
	c8.63-2.56,17.07-2.48,24.87,2.72c0.91,0.61,1.44,0.38,2.18-0.12c9.05-6.1,22.55-5.28,31.35,0.77c4.89,3.37,6.43,8.61,6.72,14.14
	c0.3,5.65,0.07,11.32,0.07,16.99C148.95,51.82,149.01,51.82,149.08,51.82z"/>
<path fill="white" d="M238.56,53.97c1.77-6.11,3.54-12.23,5.29-18.34c1.24-4.31,2.41-8.64,3.67-12.94c1.3-4.46,2.9-5.67,7.49-5.74
	c2.89-0.05,5.79-0.01,8.94-0.01c-3.03,8.99-5.98,17.7-8.92,26.42c-3.66,10.85-7.3,21.71-10.96,32.57
	c-4.36,12.95-8.24,14.01-20.96,14.02c-3.59,0-3.59-0.2-3.59-3.79c0-2,0.07-4-0.03-6c-0.07-1.32,0.38-1.75,1.69-1.7
	c1.41,0.06,2.84,0.01,4.23-0.21c5.15-0.82,6.71-3.34,5.07-8.25c-1.71-5.11-3.54-10.19-5.32-15.28
	c-4.14-11.83-8.29-23.65-12.43-35.48c-0.24-0.69-0.44-1.38-0.73-2.3c4.85,0,9.51,0.04,14.16-0.03c1.44-0.02,1.52,0.9,1.8,1.88
	c3.36,11.73,6.75,23.46,10.13,35.18C238.25,53.97,238.4,53.97,238.56,53.97z"/>
<path fill="white" d="M7.3,42.71c1.92,0,3.83,0.05,5.75-0.02c1.08-0.04,1.55,0.35,1.49,1.41c-0.01,0.16,0.02,0.33,0.04,0.5
	c1.04,8.66,5.58,12.58,14.37,12.42c8.74-0.16,12.91-3.95,13.83-12.72c0.14-1.32,0.55-1.65,1.8-1.62c3.66,0.07,7.33,0.1,10.99-0.01
	c1.5-0.04,1.73,0.55,1.76,1.88c0.27,13.11-10.11,24.98-23.19,26.5c-5.52,0.64-10.99,0.5-16.3-1.23C7.82,66.57,2.99,58.91,0.66,49.21
	c-1.56-6.5-1.56-6.5,4.9-6.5C6.14,42.71,6.72,42.71,7.3,42.71z"/>
<path fill="white" d="M268.39,54.25c0.23-5.6-0.6-12.21,0.99-18.68c2.36-9.58,8.4-15.34,17.99-17.53c3.1-0.71,6.23-0.95,9.39-1.12
	c1.56-0.09,2.01,0.42,1.96,1.95c-0.11,3.41-0.1,6.82,0,10.23c0.05,1.57-0.3,2.24-2.04,2.13c-1.81-0.11-3.66,0.03-5.47,0.27
	c-4.99,0.64-7.64,3.35-8.41,8.38c-0.55,3.56-0.27,7.14-0.3,10.72c-0.04,6.07-0.06,12.15,0.02,18.22c0.02,1.41-0.36,1.84-1.78,1.8
	c-3.58-0.1-7.16-0.1-10.73,0c-1.36,0.04-1.65-0.42-1.63-1.68C268.44,64.35,268.39,59.77,268.39,54.25z"/>
<path fill="white" d="M206.1,32.67c-2.25-8.66-7.59-14.34-16.66-16.22c-7.75-1.61-14.97-0.33-21.99,3.13c-5.32,2.62-8.42,6.79-9.68,12.51
	c-0.65,2.95-0.88,5.91-0.88,8.91c0.01,14.24-0.03,28.47,0.04,42.71c0.01,2.19-1.07,5.55,0.51,6.31c2.33,1.12,5.54,0.64,8.32,0
	c2.52-0.59,4.55-3.08,4.73-5.8c0.16-2.49,0.1-4.99,0.11-7.49c0.01-4.12,0-8.24,0-13.02c2.53,3.48,5.13,5.79,8.68,6.89
	c10.53,3.27,20.89-1.6,25.2-11.79C208.07,50.27,208.4,41.51,206.1,32.67z M191.63,53.53c-1.85,4.28-5.38,6.36-10.18,6.07
	c-4.7-0.29-7.62-2.95-9.4-7.04c-1.25-2.87-1.32-5.98-1.41-8.6c0.13-3.36,0.25-6.28,1.28-9.05c1.59-4.28,4.52-6.94,9.18-7.25
	c4.66-0.31,8.4,1.46,10.37,5.81C194.44,40.08,194.49,46.9,191.63,53.53z"/>
<path fill="white" d="M317.41,47.35c10.16,0.1,20.32,0,30.47,0.09c1.77,0.01,2.37-0.54,2.25-2.26c-0.16-2.16-0.1-4.33-0.27-6.49
	c-1.04-13.43-8.6-21.48-21.95-22.83c-11.14-1.13-20.89,2.86-25.33,15.18c-2.04,5.66-2.13,11.59-1.62,17.51
	c1.31,15.41,12.11,24.37,27.43,22.85c10.74-1.07,18.81-7.79,20.66-17.3c-3.59,0-7.16-0.03-10.73,0.02c-1.57,0.02-2.89,0.75-3.9,1.94
	c-3.33,3.97-7.66,4.47-12.23,3.18c-4.58-1.29-6.21-5.04-6.97-9.42C314.87,47.78,315.4,47.33,317.41,47.35z M315.19,36.55
	c0.73-5.5,4.38-8.96,9.79-9.09c5.84-0.14,9.4,2.85,10.38,8.58c0.29,1.71-0.1,2.37-1.97,2.25c-2.66-0.16-5.33-0.04-7.99-0.04
	c-2.92,0-5.83-0.05-8.75,0.02C315.28,38.32,315.01,37.91,315.19,36.55z"/>
<path fill="white" d="M14.47,26.75c-0.08-3.08-0.03-6.16-0.03-9.24c0-3.25,0.07-6.49-0.02-9.74c-0.14-5.18-3.54-8.29-8.3-7.71
	C2.58,0.5,0.09,3.79,0.04,8.32C-0.01,14.48,0.07,20.64,0,26.79c-0.02,1.38,0.34,1.88,1.79,1.84c3.66-0.1,7.32-0.11,10.98,0.01
	C14.32,28.69,14.51,28.05,14.47,26.75z M5.1,8.33C3.99,8.32,3.24,7.68,3.3,6.1C3.37,5.34,4,4.69,5.04,4.7
	c1.14,0.01,1.87,0.69,1.83,1.91C6.83,7.7,6.11,8.34,5.1,8.33z"/>
<path fill="white" d="M57.23,7.34c-0.14-4.24-2.92-7.07-6.49-7.3c-4.53-0.29-7.68,2.76-7.84,7.73c-0.1,3.16-0.02,6.32-0.02,9.48
	c0,3.25,0.03,6.49-0.02,9.73c-0.02,1.07,0.11,1.67,1.44,1.64c3.83-0.08,7.65-0.05,11.48-0.02c0.94,0.01,1.54-0.08,1.53-1.3
	C57.27,20.65,57.45,13.99,57.23,7.34z M47.7,8.33c-1.02-0.09-1.69-0.78-1.66-1.82c0.03-1.13,0.73-1.85,1.9-1.84
	c1.21,0.02,1.66,0.87,1.82,1.78C49.54,7.78,48.85,8.43,47.7,8.33z"/>
</svg>
